# xmcd
# Copyright (c) 1998 CDDB Inc.
#
# Track frame offsets:
#	150
#	15650
#	36012
#	53250
#	72900
#	93487
#	111075
#	129637
#	145312
#	163837
#	175400
#	192787
#	211375
#	221562
#	238337
#	255937
#
# Disc length: 3596 seconds
#
# Revision: 0
# Processed by: cddbd v1.4b41PL1 Copyright (c) Steve Scherf et al.
# Submitted via: audiograbber 1.70
#
DISCID=e30e0a10
DTITLE=Vol.1 - Memorable Hit Parade
DYEAR=1900
DGENRE=
TTITLE0=F.R.David - Words
TTITLE1=Glen Frey - The one you love
TTITLE2=Barbra Streisand - Woman in love
TTITLE3=Rod Stewart - I don't want to talk about it
TTITLE4=Bertie Higgins - Casablanca
TTITLE5=The cars - Drive
TTITLE6=Lionel Richie - Hello
TTITLE7=Willie Nelson - Aways on my mind
TTITLE8=Leo Sayer - When i need you
TTITLE9=England Dan and J.F.Coley - I'd really love to see you tonight
TTITLE10=Barbra Streisand - Memory
TTITLE11=Dan hartman - I can dream about you
TTITLE12=Louis Armstrong - What a wonderful world
TTITLE13=Bette Midler - The Rose
TTITLE14=Randy Travis - It's just a matter of time
TTITLE15=Dolly Parton - I will always love you
EXTD=
EXTT0=
EXTT1=
EXTT2=
EXTT3=
EXTT4=
EXTT5=
EXTT6=
EXTT7=
EXTT8=
EXTT9=
EXTT10=
EXTT11=
EXTT12=
EXTT13=
EXTT14=
EXTT15=
PLAYORDER=
